<svg width="372" height="18" viewBox="0 0 372 18" fill="none" xmlns="http://www.w3.org/2000/svg">
<path d="M6.254 2.39C4.874 2.39 3.788 2.852 2.996 3.776C2.204 4.7 1.808 5.966 1.808 7.574C1.808 9.17 2.174 10.436 2.906 11.372C3.65 12.296 4.76 12.758 6.236 12.758C6.8 12.758 7.334 12.71 7.838 12.614C8.342 12.518 8.834 12.398 9.314 12.254V13.658C8.834 13.838 8.336 13.97 7.82 14.054C7.316 14.138 6.71 14.18 6.002 14.18C4.694 14.18 3.602 13.91 2.726 13.37C1.85 12.83 1.19 12.062 0.746 11.066C0.314 10.07 0.0980001 8.9 0.0980001 7.556C0.0980001 6.26 0.332 5.12 0.8 4.136C1.28 3.14 1.982 2.366 2.906 1.814C3.83 1.25 4.952 0.967999 6.272 0.967999C7.628 0.967999 8.81 1.22 9.818 1.724L9.17 3.092C8.774 2.912 8.33 2.75 7.838 2.606C7.358 2.462 6.83 2.39 6.254 2.39ZM21.497 1.148V12.56H23.135V17.384H21.587V14H12.749V17.384H11.201V12.56H12.191C12.623 11.816 13.031 10.982 13.415 10.058C13.811 9.134 14.159 8.168 14.459 7.16C14.759 6.14 15.005 5.12 15.197 4.1C15.389 3.08 15.509 2.096 15.557 1.148H21.497ZM19.895 2.606H16.979C16.931 3.302 16.811 4.088 16.619 4.964C16.439 5.84 16.205 6.74 15.917 7.664C15.641 8.576 15.329 9.458 14.981 10.31C14.645 11.162 14.285 11.912 13.901 12.56H19.895V2.606ZM33.1864 14H26.0044V1.148H33.1864V2.57H27.6244V6.584H32.8624V7.988H27.6244V12.578H33.1864V14ZM45.9783 14H44.3583V2.57H40.2903C40.1823 3.458 40.0623 4.394 39.9303 5.378C39.7983 6.35 39.6663 7.28 39.5343 8.168C39.4023 9.056 39.2703 9.812 39.1383 10.436C38.9823 11.24 38.7903 11.924 38.5623 12.488C38.3343 13.052 38.0283 13.478 37.6443 13.766C37.2723 14.054 36.7803 14.198 36.1683 14.198C35.9643 14.198 35.7543 14.174 35.5383 14.126C35.3343 14.09 35.1543 14.042 34.9983 13.982V12.632C35.1303 12.692 35.2803 12.746 35.4483 12.794C35.6163 12.83 35.7963 12.848 35.9883 12.848C36.3483 12.848 36.6303 12.704 36.8343 12.416C37.0503 12.116 37.2183 11.75 37.3383 11.318C37.4583 10.874 37.5603 10.436 37.6443 10.004C37.7403 9.548 37.8543 8.882 37.9863 8.006C38.1303 7.118 38.2803 6.086 38.4363 4.91C38.6043 3.734 38.7723 2.48 38.9403 1.148H45.9783V14ZM58.2545 14L56.7065 10.022H51.6125L50.0825 14H48.4445L53.4665 1.094H54.9245L59.9285 14H58.2545ZM56.2205 8.582L54.7805 4.694C54.7445 4.598 54.6845 4.424 54.6005 4.172C54.5165 3.92 54.4325 3.662 54.3485 3.398C54.2765 3.122 54.2165 2.912 54.1685 2.768C54.0845 3.14 53.9885 3.506 53.8805 3.866C53.7725 4.214 53.6825 4.49 53.6105 4.694L52.1525 8.582H56.2205ZM69.5885 14H62.4065V1.148H69.5885V2.57H64.0265V6.584H69.2645V7.988H64.0265V12.578H69.5885V14ZM78.7985 14L74.5685 2.732H74.4965C74.5325 3.104 74.5625 3.608 74.5865 4.244C74.6105 4.868 74.6225 5.522 74.6225 6.206V14H73.1285V1.148H75.5225L79.4825 11.678H79.5545L83.5865 1.148H85.9625V14H84.3605V6.098C84.3605 5.474 84.3725 4.856 84.3965 4.244C84.4325 3.632 84.4625 3.134 84.4865 2.75H84.4145L80.1305 14H78.7985ZM95.9435 1.148H99.6155C101.224 1.148 102.436 1.388 103.252 1.868C104.08 2.336 104.494 3.158 104.494 4.334C104.494 5.09 104.284 5.72 103.864 6.224C103.444 6.716 102.838 7.034 102.046 7.178V7.268C102.586 7.352 103.072 7.508 103.504 7.736C103.948 7.964 104.296 8.288 104.548 8.708C104.8 9.128 104.926 9.674 104.926 10.346C104.926 11.51 104.524 12.41 103.72 13.046C102.928 13.682 101.842 14 100.462 14H95.9435V1.148ZM97.5635 6.62H99.9395C101.044 6.62 101.8 6.446 102.208 6.098C102.616 5.738 102.82 5.21 102.82 4.514C102.82 3.806 102.568 3.302 102.064 3.002C101.572 2.69 100.78 2.534 99.6875 2.534H97.5635V6.62ZM97.5635 7.97V12.632H100.156C101.296 12.632 102.088 12.41 102.532 11.966C102.976 11.522 103.198 10.94 103.198 10.22C103.198 9.548 102.964 9.008 102.496 8.6C102.04 8.18 101.218 7.97 100.03 7.97H97.5635ZM116.435 14L114.887 10.022H109.793L108.263 14H106.625L111.647 1.094H113.105L118.109 14H116.435ZM114.401 8.582L112.961 4.694C112.925 4.598 112.865 4.424 112.781 4.172C112.697 3.92 112.613 3.662 112.529 3.398C112.457 3.122 112.397 2.912 112.349 2.768C112.265 3.14 112.169 3.506 112.061 3.866C111.953 4.214 111.863 4.49 111.791 4.694L110.333 8.582H114.401ZM135.743 14H120.587V1.148H122.207V12.56H127.337V1.148H128.957V12.56H134.105V1.148H135.743V14ZM147.157 14H139.975V1.148H147.157V2.57H141.595V6.584H146.833V7.988H141.595V12.578H147.157V14ZM156.461 14V1.148H166.109V14H164.507V2.57H158.081V14H156.461ZM179.833 1.148L175.729 10.346C175.345 11.198 174.955 11.912 174.559 12.488C174.175 13.052 173.719 13.478 173.191 13.766C172.663 14.042 171.991 14.18 171.175 14.18C170.839 14.18 170.521 14.156 170.221 14.108C169.933 14.06 169.669 13.994 169.429 13.91V12.308C169.669 12.416 169.927 12.506 170.203 12.578C170.479 12.638 170.767 12.668 171.067 12.668C171.739 12.668 172.267 12.524 172.651 12.236C173.047 11.948 173.413 11.438 173.749 10.706L168.799 1.148H170.581L174.163 8.222C174.223 8.342 174.295 8.498 174.379 8.69C174.463 8.87 174.535 9.044 174.595 9.212H174.667C174.715 9.08 174.775 8.924 174.847 8.744C174.919 8.552 174.979 8.396 175.027 8.276L178.123 1.148H179.833ZM186.368 14H184.748V2.57H180.734V1.148H190.364V2.57H186.368V14ZM200.204 14H193.022V1.148H200.204V2.57H194.642V6.584H199.88V7.988H194.642V12.578H200.204V14ZM218.9 14H203.744V1.148H205.364V12.56H210.494V1.148H212.114V12.56H217.262V1.148H218.9V14ZM230.314 14H223.132V1.148H230.314V2.57H224.752V6.584H229.99V7.988H224.752V12.578H230.314V14ZM239.362 2.39C237.982 2.39 236.896 2.852 236.104 3.776C235.312 4.7 234.916 5.966 234.916 7.574C234.916 9.17 235.282 10.436 236.014 11.372C236.758 12.296 237.868 12.758 239.344 12.758C239.908 12.758 240.442 12.71 240.946 12.614C241.45 12.518 241.942 12.398 242.422 12.254V13.658C241.942 13.838 241.444 13.97 240.928 14.054C240.424 14.138 239.818 14.18 239.11 14.18C237.802 14.18 236.71 13.91 235.834 13.37C234.958 12.83 234.298 12.062 233.854 11.066C233.422 10.07 233.206 8.9 233.206 7.556C233.206 6.26 233.44 5.12 233.908 4.136C234.388 3.14 235.09 2.366 236.014 1.814C236.938 1.25 238.06 0.967999 239.38 0.967999C240.736 0.967999 241.918 1.22 242.926 1.724L242.278 3.092C241.882 2.912 241.438 2.75 240.946 2.606C240.466 2.462 239.938 2.39 239.362 2.39ZM250.015 14H248.395V2.57H244.381V1.148H254.011V2.57H250.015V14ZM256.669 1.148H260.341C261.949 1.148 263.161 1.388 263.977 1.868C264.805 2.336 265.219 3.158 265.219 4.334C265.219 5.09 265.009 5.72 264.589 6.224C264.169 6.716 263.563 7.034 262.771 7.178V7.268C263.311 7.352 263.797 7.508 264.229 7.736C264.673 7.964 265.021 8.288 265.273 8.708C265.525 9.128 265.651 9.674 265.651 10.346C265.651 11.51 265.249 12.41 264.445 13.046C263.653 13.682 262.567 14 261.187 14H256.669V1.148ZM258.289 6.62H260.665C261.769 6.62 262.525 6.446 262.933 6.098C263.341 5.738 263.545 5.21 263.545 4.514C263.545 3.806 263.293 3.302 262.789 3.002C262.297 2.69 261.505 2.534 260.413 2.534H258.289V6.62ZM258.289 7.97V12.632H260.881C262.021 12.632 262.813 12.41 263.257 11.966C263.701 11.522 263.923 10.94 263.923 10.22C263.923 9.548 263.689 9.008 263.221 8.6C262.765 8.18 261.943 7.97 260.755 7.97H258.289ZM269.114 1.148H270.626V8.204C270.626 8.6 270.62 9.044 270.608 9.536C270.596 10.028 270.578 10.478 270.554 10.886C270.542 11.294 270.524 11.594 270.5 11.786H270.572L277.646 1.148H279.446V14H277.934V7.016C277.934 6.572 277.94 6.098 277.952 5.594C277.976 5.09 278 4.628 278.024 4.208C278.048 3.788 278.066 3.488 278.078 3.308H278.006L270.914 14H269.114V1.148ZM290.814 14H283.632V1.148H290.814V2.57H285.252V6.584H290.49V7.988H285.252V12.578H290.814V14ZM309.371 14H307.751V2.57H303.683C303.575 3.458 303.455 4.394 303.323 5.378C303.191 6.35 303.059 7.28 302.927 8.168C302.795 9.056 302.663 9.812 302.531 10.436C302.375 11.24 302.183 11.924 301.955 12.488C301.727 13.052 301.421 13.478 301.037 13.766C300.665 14.054 300.173 14.198 299.561 14.198C299.357 14.198 299.147 14.174 298.931 14.126C298.727 14.09 298.547 14.042 298.391 13.982V12.632C298.523 12.692 298.673 12.746 298.841 12.794C299.009 12.83 299.189 12.848 299.381 12.848C299.741 12.848 300.023 12.704 300.227 12.416C300.443 12.116 300.611 11.75 300.731 11.318C300.851 10.874 300.953 10.436 301.037 10.004C301.133 9.548 301.247 8.882 301.379 8.006C301.523 7.118 301.673 6.086 301.829 4.91C301.997 3.734 302.165 2.48 302.333 1.148H309.371V14ZM320.765 14H313.583V1.148H320.765V2.57H315.203V6.584H320.441V7.988H315.203V12.578H320.765V14ZM331.559 1.148V2.588H325.925V14H324.305V1.148H331.559ZM343.537 14H341.917V8.726C341.221 8.966 340.567 9.164 339.955 9.32C339.355 9.464 338.683 9.536 337.939 9.536C336.739 9.536 335.809 9.26 335.149 8.708C334.489 8.144 334.159 7.334 334.159 6.278V1.148H335.779V6.044C335.779 6.74 335.959 7.262 336.319 7.61C336.691 7.946 337.285 8.114 338.101 8.114C338.809 8.114 339.445 8.048 340.009 7.916C340.573 7.784 341.209 7.604 341.917 7.376V1.148H343.537V14ZM354.935 14H347.753V1.148H354.935V2.57H349.373V6.584H354.611V7.988H349.373V12.578H354.935V14ZM360.596 13.1035C360.596 13.3145 360.558 13.5137 360.482 13.7012C360.406 13.8828 360.3 14.041 360.165 14.1758C360.031 14.3105 359.872 14.416 359.691 14.4922C359.509 14.5742 359.313 14.6152 359.102 14.6152C358.897 14.6152 358.701 14.5742 358.513 14.4922C358.331 14.416 358.17 14.3105 358.03 14.1758C357.895 14.041 357.787 13.8828 357.704 13.7012C357.628 13.5137 357.59 13.3145 357.59 13.1035C357.59 12.8984 357.628 12.7051 357.704 12.5234C357.787 12.3418 357.895 12.1836 358.03 12.0488C358.17 11.9141 358.331 11.8086 358.513 11.7324C358.701 11.6504 358.897 11.6094 359.102 11.6094C359.313 11.6094 359.509 11.6504 359.691 11.7324C359.872 11.8086 360.031 11.9141 360.165 12.0488C360.3 12.1836 360.406 12.3418 360.482 12.5234C360.558 12.7051 360.596 12.8984 360.596 13.1035ZM366.062 13.1035C366.062 13.3145 366.024 13.5137 365.948 13.7012C365.872 13.8828 365.766 14.041 365.632 14.1758C365.497 14.3105 365.339 14.416 365.157 14.4922C364.975 14.5742 364.779 14.6152 364.568 14.6152C364.363 14.6152 364.167 14.5742 363.979 14.4922C363.798 14.416 363.636 14.3105 363.496 14.1758C363.361 14.041 363.253 13.8828 363.171 13.7012C363.094 13.5137 363.056 13.3145 363.056 13.1035C363.056 12.8984 363.094 12.7051 363.171 12.5234C363.253 12.3418 363.361 12.1836 363.496 12.0488C363.636 11.9141 363.798 11.8086 363.979 11.7324C364.167 11.6504 364.363 11.6094 364.568 11.6094C364.779 11.6094 364.975 11.6504 365.157 11.7324C365.339 11.8086 365.497 11.9141 365.632 12.0488C365.766 12.1836 365.872 12.3418 365.948 12.5234C366.024 12.7051 366.062 12.8984 366.062 13.1035ZM371.528 13.1035C371.528 13.3145 371.49 13.5137 371.414 13.7012C371.338 13.8828 371.232 14.041 371.098 14.1758C370.963 14.3105 370.805 14.416 370.623 14.4922C370.441 14.5742 370.245 14.6152 370.034 14.6152C369.829 14.6152 369.633 14.5742 369.445 14.4922C369.264 14.416 369.103 14.3105 368.962 14.1758C368.827 14.041 368.719 13.8828 368.637 13.7012C368.561 13.5137 368.522 13.3145 368.522 13.1035C368.522 12.8984 368.561 12.7051 368.637 12.5234C368.719 12.3418 368.827 12.1836 368.962 12.0488C369.103 11.9141 369.264 11.8086 369.445 11.7324C369.633 11.6504 369.829 11.6094 370.034 11.6094C370.245 11.6094 370.441 11.6504 370.623 11.7324C370.805 11.8086 370.963 11.9141 371.098 12.0488C371.232 12.1836 371.338 12.3418 371.414 12.5234C371.49 12.7051 371.528 12.8984 371.528 13.1035Z" fill="white"/>
</svg>
