<svg width="80" height="80" viewBox="0 0 80 80" fill="none" xmlns="http://www.w3.org/2000/svg">
<rect width="80" height="80" fill="#E5E5E5"/>
<g filter="url(#filter0_i)">
<rect width="80" height="80" fill="#0A5082"/>
</g>
<path d="M22.2568 50H18.4863V44.0806C17.6514 43.8696 16.8823 43.5312 16.1792 43.0654C15.4849 42.5996 14.8872 42.0459 14.3862 41.4043C13.8853 40.7539 13.4941 40.0376 13.2129 39.2554C12.9404 38.4644 12.8042 37.6338 12.8042 36.7637V31.0947H16.5879V36.7637C16.5879 37.2822 16.6846 37.7744 16.8779 38.2402C17.0801 38.6973 17.3525 39.0972 17.6953 39.4399C18.0381 39.7827 18.438 40.0552 18.895 40.2573C19.3608 40.4507 19.853 40.5474 20.3716 40.5474C20.8901 40.5474 21.3779 40.4507 21.835 40.2573C22.3008 40.0552 22.7051 39.7827 23.0479 39.4399C23.3906 39.0972 23.6587 38.6973 23.8521 38.2402C24.0542 37.7744 24.1553 37.2822 24.1553 36.7637V31.0947H27.9258V36.7637C27.9258 37.6338 27.7852 38.4644 27.5039 39.2554C27.2314 40.0376 26.8447 40.7539 26.3438 41.4043C25.8428 42.0459 25.2451 42.5996 24.5508 43.0654C23.8564 43.5312 23.0918 43.8696 22.2568 44.0806V50ZM49.8295 40.6265C49.8295 41.5229 49.7109 42.3887 49.4736 43.2236C49.2451 44.0498 48.9199 44.8276 48.498 45.5571C48.0761 46.2778 47.5663 46.937 46.9687 47.5347C46.371 48.1323 45.7119 48.6465 44.9912 49.0771C44.2704 49.499 43.4926 49.8242 42.6577 50.0527C41.8227 50.29 40.957 50.4087 40.0605 50.4087C39.164 50.4087 38.2983 50.29 37.4633 50.0527C36.6371 49.8242 35.8593 49.499 35.1298 49.0771C34.4091 48.6465 33.7499 48.1323 33.1523 47.5347C32.5546 46.937 32.0405 46.2778 31.6098 45.5571C31.1879 44.8276 30.8583 44.0498 30.621 43.2236C30.3925 42.3887 30.2783 41.5229 30.2783 40.6265C30.2783 39.73 30.3925 38.8643 30.621 38.0293C30.8583 37.1943 31.1879 36.4165 31.6098 35.6958C32.0405 34.9751 32.5546 34.3159 33.1523 33.7183C33.7499 33.1206 34.4091 32.6108 35.1298 32.189C35.8593 31.7671 36.6371 31.4419 37.4633 31.2134C38.2983 30.9761 39.164 30.8574 40.0605 30.8574C40.957 30.8574 41.8227 30.9761 42.6577 31.2134C43.4926 31.4419 44.2704 31.7671 44.9912 32.189C45.7119 32.6108 46.371 33.1206 46.9687 33.7183C47.5663 34.3159 48.0761 34.9751 48.498 35.6958C48.9199 36.4165 49.2451 37.1943 49.4736 38.0293C49.7109 38.8643 49.8295 39.73 49.8295 40.6265ZM46.0722 40.6265C46.0722 39.8003 45.914 39.0225 45.5976 38.293C45.2812 37.5547 44.8505 36.9175 44.3056 36.3813C43.7695 35.8364 43.1323 35.4058 42.394 35.0894C41.6645 34.7729 40.8867 34.6147 40.0605 34.6147C39.2255 34.6147 38.4433 34.7729 37.7138 35.0894C36.9843 35.4058 36.3471 35.8364 35.8022 36.3813C35.2573 36.9175 34.8266 37.5547 34.5102 38.293C34.1938 39.0225 34.0356 39.8003 34.0356 40.6265C34.0356 41.4526 34.1938 42.2305 34.5102 42.96C34.8266 43.6807 35.2573 44.3135 35.8022 44.8584C36.3471 45.4033 36.9843 45.834 37.7138 46.1504C38.4433 46.4668 39.2255 46.625 40.0605 46.625C40.8867 46.625 41.6645 46.4668 42.394 46.1504C43.1323 45.834 43.7695 45.4033 44.3056 44.8584C44.8505 44.3135 45.2812 43.6807 45.5976 42.96C45.914 42.2305 46.0722 41.4526 46.0722 40.6265ZM66.3676 50H53.1312V31.0947H56.9149V46.2163H66.3676V50Z" fill="white"/>
<defs>
<filter id="filter0_i" x="0" y="0" width="85" height="85" filterUnits="userSpaceOnUse" color-interpolation-filters="sRGB">
<feFlood flood-opacity="0" result="BackgroundImageFix"/>
<feBlend mode="normal" in="SourceGraphic" in2="BackgroundImageFix" result="shape"/>
<feColorMatrix in="SourceAlpha" type="matrix" values="0 0 0 0 0 0 0 0 0 0 0 0 0 0 0 0 0 0 127 0" result="hardAlpha"/>
<feOffset dx="5" dy="5"/>
<feGaussianBlur stdDeviation="50"/>
<feComposite in2="hardAlpha" operator="arithmetic" k2="-1" k3="1"/>
<feColorMatrix type="matrix" values="0 0 0 0 0 0 0 0 0 0 0 0 0 0 0 0 0 0 0.21 0"/>
<feBlend mode="normal" in2="shape" result="effect1_innerShadow"/>
</filter>
</defs>
</svg>
